Coordinates
version=1
nRows=7
nColumns=40
inDegrees=yes

Units are S.I. units (second, meters, Newtons, ...)
Angles are in degrees.

endheader
time	pelvis_tilt	pelvis_list	pelvis_rotation	pelvis_tx	pelvis_ty	pelvis_tz	hip_flexion_r	hip_adduction_r	hip_rotation_r	knee_angle_r	knee_angle_r_beta	ankle_angle_r	subtalar_angle_r	mtp_angle_r	hip_flexion_l	hip_adduction_l	hip_rotation_l	knee_angle_l	knee_angle_l_beta	ankle_angle_l	subtalar_angle_l	mtp_angle_l	lumbar_extension	lumbar_bending	lumbar_rotation	arm_flex_r	arm_add_r	arm_rot_r	elbow_flex_r	pro_sup_r	wrist_flex_r	wrist_dev_r	arm_flex_l	arm_add_l	arm_rot_l	elbow_flex_l	pro_sup_l	wrist_flex_l	wrist_dev_l
     36.65000000	     -3.05321194	     -5.45903704	      3.17950837	      1.12210209	      0.91404019	      0.55673143	     16.37560635	      4.95639275	     -7.10097883	     29.52901915	     29.52901915	     17.44060851	     -8.64802290	     -0.55332929	     22.35681679	    -16.25390275	      6.20016011	     62.33265637	     62.33265637	      0.66511144	    -15.69266711	     -3.73447023	    -11.04699604	      5.24919676	      0.79727233	     14.03276690	    -13.11190815	     -5.90821307	     29.08748834	     45.89815322	      0.00000000	      0.00000000	      7.51352800	     -8.70198825	      0.31882294	     26.37716173	     45.44562154	      0.00000000	      0.00000000
     36.67142857	     -2.75008983	     -5.24462421	      4.08445968	      1.12137752	      0.91272810	      0.55778742	     16.21611446	      4.95718900	     -6.84204510	     30.31083894	     30.31083894	     17.98176092	    -10.40224263	     -0.12506361	     24.38048100	    -15.69831422	      6.86013272	     64.72227677	     64.72227677	      1.20442010	    -17.59107682	      0.98738331	    -11.16222731	      5.10631223	      0.86160116	     17.14432901	    -13.47550392	     -6.03149675	     29.20724892	     45.95240354	      0.00000000	      0.00000000	      5.57211119	     -8.01895912	      1.43654600	     24.43709307	     45.26246352	      0.00000000	      0.00000000
     36.69285714	     -2.43899617	     -5.05077764	      5.03529516	      1.12071218	      0.91159944	      0.55873812	     15.97964828	      4.87305365	     -7.00286951	     31.02152938	     31.02152938	     18.50207591	    -11.50021076	      0.10075599	     26.39497405	    -15.15460260	      7.44433282	     66.84538252	     66.84538252	      3.12803306	    -18.52699167	      8.26056106	    -11.27113175	      5.08168688	      1.13134355	     19.92373807	    -14.09657991	     -6.59322762	     30.75747931	     45.96748584	      0.00000000	      0.00000000	      2.81128933	     -7.66282571	      2.73894402	     24.41911305	     45.00594283	      0.00000000	      0.00000000
     36.71428571	     -2.11195251	     -4.93916298	      6.01134300	      1.11998096	      0.91070099	      0.55968854	     15.62227298	      4.90460416	     -7.19775002	     31.51762684	     31.51762684	     19.03189999	    -12.51283775	      0.50895091	     28.27119348	    -14.89058815	      7.72350469	     68.34164148	     68.34164148	      5.17538119	    -19.09195221	     14.61091788	    -11.43906008	      5.12915442	      1.46308360	     22.72770136	    -14.67577960	     -7.81202132	     32.20728895	     46.05436880	      0.00000000	      0.00000000	     -0.09661055	     -8.12745523	      9.56947139	     25.13056417	     44.05161951	      0.00000000	      0.00000000
     36.73571429	     -1.77194850	     -4.84386097	      6.94739905	      1.11930640	      0.91036980	      0.56056797	     15.04957048	      4.92305191	     -7.58651881	     31.64671485	     31.64671485	     19.37710968	    -13.10223650	      0.49825745	     29.67276209	    -14.97536643	      7.45945879	     68.67088294	     68.67088294	      5.68942939	    -19.43768199	     14.96672129	    -11.62842833	      5.15991413	      2.38238266	     25.26571869	    -15.95647990	     -8.04780127	     33.26565225	     46.04876423	      0.00000000	      0.00000000	     -2.06443927	     -7.65271254	      9.68748859	     24.52574765	     44.00325003	      0.00000000	      0.00000000
     36.75714286	     -1.59859096	     -4.83330574	      7.97026044	      1.11826141	      0.91033814	      0.56105702	     14.58285907	      5.10367208	     -7.77729509	     31.51844975	     31.51844975	     19.48574778	    -14.32476638	      0.91702836	     31.24563966	    -14.78276693	      7.52634044	     68.54782359	     68.54782359	      8.11948058	    -19.54540795	     20.07468125	    -11.72018457	      5.35714923	      1.42822860	     28.48409561	    -15.67185081	     -8.56813778	     36.01916740	     45.99197296	      0.00000000	      0.00000000	     -4.99222370	     -7.46598584	     10.30271011	     24.49679095	     43.86776822	      0.00000000	      0.00000000
     36.77857143	     -1.52374416	     -4.70430030	      8.91511871	      1.11711746	      0.91082893	      0.56116146	     14.08851850	      4.97480688	     -8.38919748	     31.21448727	     31.21448727	     19.66273377	    -14.48273046	      1.13196345	     32.46083711	    -14.44926908	      7.31399942	     67.42854671	     67.42854671	     10.11474649	    -19.59797195	     23.23096919	    -11.76427266	      5.36979011	      1.93139649	     30.89833713	    -16.58247348	     -9.33485073	     38.05191167	     45.97150351	      0.00000000	      0.00000000	     -7.32509743	     -7.58764676	     11.35824926	     25.64418788	     43.67946551	      0.00000000	      0.00000000
